# xmcd
#
# Track frame offsets: 
#        150
#        16508
#        38218
#        50342
#        71361
#        98924
#        126348
#        151044
#        175657
#        191050
#        212562
#
# Disc length: 3056 seconds
#
# Revision: 0
# Processed by: cddbd v1.5.2PL0 Copyright (c) Steve Scherf et al.
# Submitted via: ExactAudioCopy v1.0b3
#
DISCID=850bee0b
DTITLE=Procol Harum - Something Magic +3 [2009 Reissue]
DYEAR=1977
DGENRE=Progressive Rock
TTITLE0=Something Magic
TTITLE1=Skating on Thin Ice
TTITLE2=Wizard Man
TTITLE3=The Mark of the Claw
TTITLE4=Strangers in Space
TTITLE5=The Worm and The Tree - Part One: Introductin, Menace, Occupatio
TTITLE5=n
TTITLE6=The Worm and The Tree - Part Two: Enervation, Expectancy, Battle
TTITLE7=The Worm and The Tree - Part Three: Regeneration, Epilogue
TTITLE8=Backgammon [Single B-Side]
TTITLE9=You'd Better Wait [Live]
TTITLE10=This Old Dog [Live]
EXTD=
EXTT0=
EXTT1=
EXTT2=
EXTT3=
EXTT4=
EXTT5=
EXTT6=
EXTT7=
EXTT8=
EXTT9=
EXTT10=
PLAYORDER=
